<svg aria-hidden="true" style="width:0;height:0;position:absolute;overflow:hidden" xmlns="http://www.w3.org/2000/svg"><defs><symbol id="icon-menu" viewBox="0 0 45 32"><path stroke-linejoin="round" stroke-linecap="round" stroke-width="4" d="M3.2 16h38.4M3.2 3.2h38.4M3.2 28.8h38.4"/></symbol><symbol id="icon-logo" viewBox="0 0 28 32"><path fill="none" stroke="#fd9222" style="stroke:var(--color1,#fd9222)" stroke-linejoin="round" stroke-linecap="round" stroke-width="2.667" d="M20.301 23.88 6.116 15.016m3.912-6.417 14.185 8.864M9.297 25.864l11.736-19.25m4.81 8.175c-3.04-1.899-4.234-3.384-2.278-6.592l-9.626-6.015-11.736 19.25 14.186 8.864 9.454-15.507z"/></symbol><symbol id="icon-flag" viewBox="0 0 32 32"><path fill="gold" style="fill:var(--color1,gold)" d="M31.832 4.558H.243v23.508h31.589V4.558z"/><path fill="#0057b7" style="fill:var(--color2,#0057b7)" d="M.243 4.558h31.589v11.754H.243V4.558z"/></symbol><symbol id="icon-x-close" viewBox="0 0 32 32"><path d="M21 7 7 21M7 7l14 14" stroke-width="2" stroke-linecap="round" stroke-linejoin="round"/></symbol><symbol id="icon-Mastercard" viewBox="0 0 51 32"><path fill="#ed0006" style="fill:var(--color6,#ed0006)" d="M25.6 26.935a14.53 14.53 0 0 1-9.496 3.518c-8.086 0-14.641-6.593-14.641-14.726S8.018 1.001 16.104 1.001c3.624 0 6.94 1.324 9.496 3.518a14.532 14.532 0 0 1 9.497-3.518c8.086 0 14.64 6.593 14.64 14.726s-6.555 14.726-14.64 14.726c-3.624 0-6.94-1.324-9.497-3.518z"/><path fill="#f9a000" style="fill:var(--color7,#f9a000)" d="M25.6 26.935c3.148-2.701 5.144-6.72 5.144-11.209S28.748 7.219 25.6 4.518A14.53 14.53 0 0 1 35.097 1c8.086 0 14.64 6.593 14.64 14.726s-6.555 14.726-14.64 14.726c-3.624 0-6.94-1.324-9.497-3.518z"/><path fill="#ff5e00" style="fill:var(--color8,#ff5e00)" d="M25.6 26.935c3.148-2.701 5.144-6.72 5.144-11.208S28.748 7.22 25.6 4.519c-3.148 2.701-5.144 6.72-5.144 11.208s1.996 8.507 5.144 11.208z"/></symbol><symbol id="icon-angle" viewBox="0 0 22 22"><path d="M11.65 12.283a.917.917 0 0 1-1.3 0l-4.2-4.207a.917.917 0 1 0-1.3 1.292l4.207 4.208a2.75 2.75 0 0 0 3.886 0l4.208-4.208a.917.917 0 0 0-1.302-1.292l-4.198 4.207Z"/></symbol><symbol id="icon-Vector" viewBox="0 0 38 32"><path fill="none" stroke="#fd9222" style="stroke:#fff" stroke-linejoin="round" stroke-linecap="round" stroke-width="3.2" d="M36.8 1.6a17.446 17.446 0 0 1-5.024 2.448 7.172 7.172 0 0 0-7.965-1.993 7.172 7.172 0 0 0-4.612 6.793v1.6c-2.812.073-5.598-.551-8.11-1.815s-5.473-4.276-7.09-6.578c0 0-5.6 15.545 8.8 21.945a18.625 18.625 0 0 1-11.2 3.2c14.4 8 32 0 32-18.4a7.131 7.131 0 0 0-.128-1.328A12.354 12.354 0 0 0 36.799 1.6z"/></symbol><symbol id="icon-instagram2" viewBox="0 0 32 32"><path fill="none" stroke="#fd9222" style="stroke:#fff" stroke-linejoin="round" stroke-linecap="round" stroke-width="2.667" d="M22.667 2.667H9.334a6.667 6.667 0 0 0-6.667 6.667v13.333a6.667 6.667 0 0 0 6.667 6.667h13.333a6.667 6.667 0 0 0 6.667-6.667V9.334a6.667 6.667 0 0 0-6.667-6.667z"/><path fill="none" stroke="#fd9222" style="stroke:#fff" stroke-linejoin="round" stroke-linecap="round" stroke-width="2.667" d="M21.334 15.16a5.329 5.329 0 0 1-2.878 5.546 5.338 5.338 0 0 1-6.169-.992 5.33 5.33 0 0 1 1.316-8.505 5.336 5.336 0 0 1 6.228.962 5.328 5.328 0 0 1 1.504 2.989zM23.333 8.667h.013"/></symbol><symbol id="icon-twitter" viewBox="0 0 38 32"><path stroke-width="3.2" stroke-linecap="round" stroke-linejoin="round" d="M36.8 1.6a17.446 17.446 0 0 1-5.024 2.448 7.172 7.172 0 0 0-7.965-1.993 7.172 7.172 0 0 0-4.612 6.793v1.6c-2.812.073-5.598-.551-8.11-1.815s-5.473-4.276-7.09-6.578c0 0-5.6 15.545 8.8 21.945a18.625 18.625 0 0 1-11.2 3.2c14.4 8 32 0 32-18.4a7.131 7.131 0 0 0-.128-1.328A12.354 12.354 0 0 0 36.799 1.6z"/></symbol><symbol id="icon-instagram" viewBox="0 0 32 32"><path stroke-linejoin="round" stroke-linecap="round" stroke-width="2.667" d="M22.667 2.667H9.334a6.667 6.667 0 0 0-6.667 6.667v13.333a6.667 6.667 0 0 0 6.667 6.667h13.333a6.667 6.667 0 0 0 6.667-6.667V9.334a6.667 6.667 0 0 0-6.667-6.667z"/><path stroke-linejoin="round" stroke-linecap="round" stroke-width="2.667" d="M21.333 15.16a5.329 5.329 0 0 1-2.878 5.546 5.338 5.338 0 0 1-6.169-.992 5.33 5.33 0 0 1-.992-6.169 5.336 5.336 0 0 1 10.04 1.615zM23.333 8.667h.013"/></symbol><symbol id="icon-spoon" viewBox="0 0 32 32"><path fill="#fd9222" style="fill:var(--color1,#fd9222)" d="M15.452 14.106a5.156 5.156 0 0 1-1.177-3.282c0-4.324 5.181-8.642 10.362-8.642a5.183 5.183 0 0 1 5.181 5.182c0 5.182-4.317 10.364-8.646 10.364a5.154 5.154 0 0 1-3.281-1.177L5.133 29.312a1.73 1.73 0 0 1-2.445-2.445l12.764-12.761Z"/></symbol><symbol id="icon-dollar" viewBox="0 0 32 32"><path fill="#fd9222" style="fill:var(--color1,#fd9222)" d="M16 .762C7.619.762.762 7.619.762 16S7.619 31.238 16 31.238 31.238 24.381 31.238 16 24.381.762 16 .762zm0 27.429c-6.705 0-12.191-5.486-12.191-12.19S9.295 3.81 16 3.81c6.705 0 12.19 5.486 12.19 12.191S22.704 28.191 16 28.191z"/><path fill="#fd9222" style="fill:var(--color1,#fd9222)" d="M17.981 14.476h-3.962c-.762 0-1.371-.61-1.371-1.371s.61-1.371 1.371-1.371h5.638c.914 0 1.524-.61 1.524-1.524s-.61-1.524-1.524-1.524h-2.133V7.315c0-.914-.61-1.524-1.524-1.524s-1.524.61-1.524 1.524v1.371h-.457c-2.438 0-4.419 1.981-4.419 4.419s1.981 4.419 4.419 4.419h3.809c.762 0 1.371.61 1.371 1.371s-.61 1.371-1.371 1.371H12.19c-.914 0-1.524.61-1.524 1.524s.61 1.524 1.524 1.524h2.286v1.371c0 .914.61 1.524 1.524 1.524s1.524-.61 1.524-1.524v-1.371h.457c2.438 0 4.419-1.981 4.419-4.419s-1.981-4.419-4.419-4.419z"/></symbol><symbol id="icon-chocolate" viewBox="0 0 32 32"><path fill="#fcf1e0" style="fill:var(--color1,#fcf1e0)" d="M3.944 20.076 14.721 2.652l.64-.674 8.236 5.491.056 3.314 2.01 3.28-8.88 14.077-12.839-8.063z"/><path fill="none" stroke="#fd9222" stroke-width="2.667" stroke-linecap="round" stroke-linejoin="round" style="stroke:var(--color2,#fd9222)" d="M21.635 23.88 7.45 15.016m3.911-6.417 14.185 8.864M10.63 25.864l11.736-19.25m4.81 8.175c-3.04-1.899-4.234-3.384-2.278-6.592l-9.626-6.015-11.736 19.25 14.186 8.864 9.454-15.507z"/></symbol><symbol id="icon-cocoa" viewBox="0 0 32 32"><path fill="none" style="fill:var(--color7,#000)" d="m13.822 2.413 7.527 7.536.08-.08a.856.856 0 0 1 1.184-.013l.873.873c.305.305.315.77.083 1.094l-.004.007-.143.192 6.16 6.16c.55.55.55 1.43 0 1.98l-9.43 9.43c-.55.55-1.43.55-1.98 0l-4.447-4.447a.853.853 0 0 1-.612.317.842.842 0 0 1-.644-.246l-2.6-2.6a.856.856 0 0 1-.013-1.184l.006-.007.077-.076-7.527-7.527c-.55-.55-.55-1.43 0-1.98l9.43-9.43c.55-.55 1.43-.55 1.98 0v.001zm6.582 8.48-1.756-1.755a.59.59 0 0 0-.85 0l-3.58 3.58a.621.621 0 0 0-.179.43.602.602 0 0 0 .179.43l1.749 1.749.61-.61-1.565-1.565 3.21-3.22 1.569 1.574.613-.613zm-5.076 5.072-1.754-1.754a.59.59 0 0 0-.85 0l-3.59 3.59c-.24.23-.24.61 0 .85l1.752 1.752.616-.616-1.57-1.564 3.22-3.21 1.564 1.563.612-.611zM8.822 8.193l3.58 3.58c.24.24.62.24.85-.01l3.58-3.58a.57.57 0 0 0 .18-.42h.01c0-.15-.06-.31-.18-.43l-3.58-3.58a.602.602 0 0 0-.86 0l-3.58 3.59c-.24.23-.24.61 0 .85zm-5.07 5.07 3.58 3.58c.24.24.62.24.85 0l3.58-3.58a.578.578 0 0 0 .18-.43h.01c0-.16-.06-.31-.18-.43l-3.58-3.58a.59.59 0 0 0-.85 0l-3.59 3.59c-.24.23-.24.61 0 .85zm6.933 8.754 2.362 2.363 9.636-13.04-.655-.655-11.343 11.332z"/><path fill="#fd9222" style="fill:var(--color1,#fd9222)" d="m13.822 2.413 7.527 7.536.08-.08a.856.856 0 0 1 1.184-.013l.873.873c.305.305.315.77.083 1.094l-.004.007-.143.192 6.16 6.16c.55.55.55 1.43 0 1.98l-9.43 9.43c-.55.55-1.43.55-1.98 0l-4.447-4.447a.853.853 0 0 1-.612.317.842.842 0 0 1-.644-.246l-2.6-2.6a.856.856 0 0 1-.013-1.184l.006-.007.077-.076-7.527-7.527c-.55-.55-.55-1.43 0-1.98l9.43-9.43c.55-.55 1.43-.55 1.98 0v.001zm6.582 8.48-1.756-1.755a.59.59 0 0 0-.85 0l-3.58 3.58a.621.621 0 0 0-.179.43.602.602 0 0 0 .179.43l1.749 1.749.61-.61-1.565-1.565 3.21-3.22 1.569 1.574.613-.613zm-5.076 5.072-1.754-1.754a.59.59 0 0 0-.85 0l-3.59 3.59c-.24.23-.24.61 0 .85l1.752 1.752.616-.616-1.57-1.564 3.22-3.21 1.564 1.563.612-.611zM8.822 8.193l3.58 3.58c.24.24.62.24.85-.01l3.58-3.58a.57.57 0 0 0 .18-.42h.01c0-.15-.06-.31-.18-.43l-3.58-3.58a.602.602 0 0 0-.86 0l-3.58 3.59c-.24.23-.24.61 0 .85zm-5.07 5.07 3.58 3.58c.24.24.62.24.85 0l3.58-3.58a.578.578 0 0 0 .18-.43h.01c0-.16-.06-.31-.18-.43l-3.58-3.58a.59.59 0 0 0-.85 0l-3.59 3.59c-.24.23-.24.61 0 .85zm6.933 8.754 2.362 2.363 9.636-13.04-.655-.655-11.343 11.332z"/></symbol><symbol id="icon-play" viewBox="0 0 32 32"><path fill="#f5f4f4" style="fill:var(--color1,#f5f4f4)" d="M11.886 23.771V10.057l12.8 6.857-12.8 6.857z"/><path fill="none" stroke="#fff" stroke-width=".914" style="stroke:var(--color2,#fff)" d="M31.543 16c0 8.584-6.959 15.543-15.543 15.543S.457 24.584.457 16 7.416.457 16 .457 31.543 7.416 31.543 16z"/></symbol></defs></svg>